<svg xmlns="http://www.w3.org/2000/svg" xmlns:xlink="http://www.w3.org/1999/xlink" viewBox="0 0 258.96 223.8"><defs><style>.cls-1{isolation:isolate;}.cls-2{opacity:0.4;mix-blend-mode:multiply;fill:url(#linear-gradient);}.cls-3{fill:#212683;}.cls-4{fill:#f2a7c5;}.cls-4,.cls-5{stroke:#1f2687;}.cls-4,.cls-5,.cls-6{stroke-miterlimit:10;stroke-width:6px;}.cls-5{fill:#a8dedb;}.cls-6{fill:none;stroke:#212683;}</style><linearGradient id="linear-gradient" x1="352.87" y1="992.36" x2="576.31" y2="992.36" gradientTransform="translate(-881.65 -292.78) rotate(-42)" gradientUnits="userSpaceOnUse"><stop offset="0" stop-color="#efa6c2"/><stop offset="1" stop-color="#96cdbd"/></linearGradient></defs><title>Weigher </title><g class="cls-1"><g id="Layer_2" data-name="Layer 2"><g id="Layer_1-2" data-name="Layer 1"><path class="cls-2" d="M171.63,73.6A53.78,53.78,0,1,0,66.11,64.92a68.07,68.07,0,1,0,62,100.32A68.09,68.09,0,1,0,171.63,73.6Z"/><path class="cls-3" d="M23.54,5.25H21.19V2.9a2.9,2.9,0,0,0-5.8,0V5.25H13a2.9,2.9,0,0,0,0,5.8h2.35v2.35a2.9,2.9,0,0,0,5.8,0V11.05h2.35a2.9,2.9,0,0,0,0-5.8Z"/><path class="cls-3" d="M230.32,13.41H228V11.05a2.9,2.9,0,0,0-5.8,0v2.35h-2.35a2.9,2.9,0,0,0,0,5.8h2.35v2.35a2.9,2.9,0,0,0,5.8,0V19.2h2.35a2.9,2.9,0,0,0,0-5.8Z"/><path class="cls-3" d="M31.7,212.75H29.34V210.4a2.9,2.9,0,0,0-5.8,0v2.35H21.19a2.9,2.9,0,0,0,0,5.8h2.35v2.35a2.9,2.9,0,0,0,5.8,0v-2.35H31.7a2.9,2.9,0,0,0,0-5.8Z"/><path class="cls-4" d="M109.68,26.5H54.15A11.87,11.87,0,0,0,42.28,38.37V174.21a11.87,11.87,0,0,0,11.87,11.87H190a11.88,11.88,0,0,0,11.88-11.87V38.37A11.88,11.88,0,0,0,190,26.5H134.45"/><path class="cls-5" d="M107.74,44.46h28.65a30.85,30.85,0,0,1,30.85,30.85v0a6.53,6.53,0,0,1-6.53,6.53H83.42a6.53,6.53,0,0,1-6.53-6.53v0a30.85,30.85,0,0,1,30.85-30.85Z"/><path class="cls-3" d="M121.7,83.1l13.67-18.69c1.9-2.6-2.43-5.1-4.32-2.52L117.39,80.57c-1.9,2.6,2.43,5.1,4.32,2.52Z"/><line class="cls-6" x1="122.07" y1="81.83" x2="122.07" y2="186.08"/><path class="cls-6" d="M55.63,146.5v20.38a4.87,4.87,0,0,0,4.88,4.88H87.63"/><circle class="cls-3" cx="122.07" cy="26.5" r="3.21" transform="translate(17.01 94.08) rotate(-45)"/></g></g></g></svg>